<?xml version="1.0" encoding="utf-8"?>
<!-- Generator: Adobe Illustrator 25.1.0, SVG Export Plug-In . SVG Version: 6.00 Build 0)  -->
<svg version="1.1" id="Logo" xmlns="http://www.w3.org/2000/svg" xmlns:xlink="http://www.w3.org/1999/xlink" x="0px" y="0px"
	 viewBox="0 0 250 102.4" style="enable-background:new 0 0 250 102.4;" xml:space="preserve">
<style type="text/css">
	.st0{opacity:0.35;fill:#FFFFFF;enable-background:new    ;}
	.st1{fill:#FFFFFF;}
</style>
<g>
	<path class="st0" d="M194.6,33.3c-7.2-19.2-25.8-32.9-47.5-32.9c-3.1,0-6.3,0.3-9.4,0.9c23.5,4.4,41.4,23.3,41.4,48.1
		c0,17.7-14.3,33.8-32,33.8c-17.7,0-32-14.3-32-32c0-14.1,9.2-26.5,22.6-30.6c-3-0.9-6.2-1.4-9.4-1.4c-17.7,0-32,16.1-32,33.8
		c0,24.8,17.8,43.7,41.4,48.1c3.1,0.6,6.2,0.9,9.4,0.9c21.7,0,40.3-13.7,47.5-32.9L194.6,33.3z"/>
	<path class="st1" d="M137.7,1.3c-3.1-0.6-6.2-0.9-9.4-0.9c-24.3,0-44.7,17.1-49.6,40c-0.2,0.8-0.9,1.3-1.6,1.3H52.4
		c-0.9,0-1.7,0.8-1.7,1.7c0,0,0,0,0,0v15.3c0,0.9,0.8,1.7,1.7,1.7h21.7c0.9,0,1.7,0.8,1.7,1.7v7.6c0,0.8-0.3,1.6-0.8,2.2
		c-11.5,13.4-31.7,14.9-45.1,3.4S15,43.7,26.5,30.3c9.4-11,25-14.2,38.1-8c0.8,0.4,1.8,0.1,2.2-0.6l7.9-13.2
		c0.5-0.8,0.2-1.8-0.6-2.3c0,0-0.1,0-0.1,0c-7.2-3.7-15.2-5.7-23.3-5.6C22.7,0.5,0,23.2,0,51.2s22.7,50.7,50.7,50.7
		c14.3,0,28-6,37.6-16.6c0.6-0.7,1.7-0.7,2.4-0.1c0,0,0.1,0.1,0.1,0.1c11.9,13,29.6,19,46.9,15.8C114.2,96.7,96.4,77.8,96.4,53
		c0-17.7,14.3-33.8,32-33.8c17.7,0,32,14.3,32,32c0,14.1-9.2,26.5-22.6,30.6c3,0.9,6.2,1.4,9.4,1.4c17.7,0,32-16.1,32-33.8
		C179.1,24.6,161.3,5.7,137.7,1.3z M248.3,81.7H215c-0.9,0-1.7-0.8-1.7-1.7V3.6c0-0.9-0.8-1.7-1.7-1.7c0,0,0,0,0,0h-15.3
		c-0.9,0-1.7,0.8-1.7,1.7v93.5c0,1.9,1.5,3.4,3.4,3.4h50.3c0.9,0,1.7-0.8,1.7-1.7V83.4C250,82.5,249.2,81.7,248.3,81.7z"/>
</g>
</svg>
